ply
format ascii 1.0
element vertex 128
property float x
property float y
property float z
element face 256
property list uchar int vertex_indices
property uchar red
property uchar green
property uchar blue
property int segment_id
end_header
5.0 0.0 -1.0
5.0 0.9945619106292725 -1.0
5.0 0.9945619106292725 1.0
5.0 0.0 1.0
5.0 2.071068048477173 -1.0
5.0 2.071068048477173 1.0
5.0 3.340893507003784 -1.0
5.0 3.340893507003784 1.0
5.0 5.0 -1.0
5.0 5.0 1.0
3.340892791748047 5.0 -1.0
3.340892791748047 5.0 1.0
2.0710678100585938 5.0 -1.0
2.0710678100585938 5.0 1.0
0.9945613741874695 5.0 -1.0
0.9945613741874695 5.0 1.0
-2.18556948539117e-07 5.0 -1.0
-2.18556948539117e-07 5.0 1.0
-0.9945619106292725 5.0 -1.0
-0.9945619106292725 5.0 1.0
-2.071068286895752 5.0 -1.0
-2.071068286895752 5.0 1.0
-3.3408942222595215 5.0 -1.0
-3.3408942222595215 5.0 1.0
-5.0 5.0 -1.0
-5.0 5.0 1.0
-5.0 3.340892791748047 -1.0
-5.0 3.340892791748047 1.0
-5.0 2.0710668563842773 -1.0
-5.0 2.0710668563842773 1.0
-5.0 0.9945617318153381 -1.0
-5.0 0.9945617318153381 1.0
-5.0 -4.37113897078234e-07 -1.0
-5.0 -4.37113897078234e-07 1.0
-5.0 -0.9945627450942993 -1.0
-5.0 -0.9945627450942993 1.0
-5.0 -2.0710678100585938 -1.0
-5.0 -2.0710678100585938 1.0
-5.0 -3.3408937454223633 -1.0
-5.0 -3.3408937454223633 1.0
-4.999998569488525 -5.0 -1.0
-4.999998569488525 -5.0 1.0
-3.340891122817993 -5.0 -1.0
-3.340891122817993 -5.0 1.0
-2.071065902709961 -5.0 -1.0
-2.071065902709961 -5.0 1.0
-0.9945622086524963 -5.0 -1.0
-0.9945622086524963 -5.0 1.0
5.962440496887211e-08 -5.0 -1.0
5.962440496887211e-08 -5.0 1.0
0.9945623874664307 -5.0 -1.0
0.9945623874664307 -5.0 1.0
2.0710690021514893 -5.0 -1.0
2.0710690021514893 -5.0 1.0
3.3408946990966797 -5.0 -1.0
3.3408946990966797 -5.0 1.0
5.0 -4.999996662139893 -1.0
5.0 -4.999996662139893 1.0
5.0 -3.3408937454223633 -1.0
5.0 -3.3408937454223633 1.0
5.0 -2.0710675716400146 -1.0
5.0 -2.0710675716400146 1.0
5.0 -0.9945613741874695 -1.0
5.0 -0.9945613741874695 1.0
2.0 0.0 -1.0
1.9615705013275146 0.39018064737319946 1.0
1.9615705013275146 0.39018064737319946 -1.0
2.0 0.0 1.0
1.8477590084075928 0.7653669118881226 1.0
1.8477590084075928 0.7653669118881226 -1.0
1.662939190864563 1.111140489578247 1.0
1.662939190864563 1.111140489578247 -1.0
1.4142135381698608 1.4142135381698608 1.0
1.4142135381698608 1.4142135381698608 -1.0
1.1111403703689575 1.6629393100738525 1.0
1.1111403703689575 1.6629393100738525 -1.0
0.7653668522834778 1.8477590084075928 1.0
0.7653668522834778 1.8477590084075928 -1.0
0.39018046855926514 1.9615706205368042 1.0
0.39018046855926514 1.9615706205368042 -1.0
-8.742277657347586e-08 2.0 1.0
-8.742277657347586e-08 2.0 -1.0
-0.39018064737319946 1.9615705013275146 1.0
-0.39018064737319946 1.9615705013275146 -1.0
-0.7653670310974121 1.8477590084075928 1.0
-0.7653670310974121 1.8477590084075928 -1.0
-1.1111407279968262 1.6629390716552734 1.0
-1.1111407279968262 1.6629390716552734 -1.0
-1.4142135381698608 1.4142135381698608 1.0
-1.4142135381698608 1.4142135381698608 -1.0
-1.6629393100738525 1.1111403703689575 1.0
-1.6629393100738525 1.1111403703689575 -1.0
-1.8477592468261719 0.7653665542602539 1.0
-1.8477592468261719 0.7653665542602539 -1.0
-1.9615706205368042 0.3901806175708771 1.0
-1.9615706205368042 0.3901806175708771 -1.0
-2.0 -1.7484555314695172e-07 1.0
-2.0 -1.7484555314695172e-07 -1.0
-1.9615705013275146 -0.3901809751987457 1.0
-1.9615705013275146 -0.3901809751987457 -1.0
-1.8477590084075928 -0.7653668522834778 1.0
-1.8477590084075928 -0.7653668522834778 -1.0
-1.6629390716552734 -1.1111406087875366 1.0
-1.6629390716552734 -1.1111406087875366 -1.0
-1.4142132997512817 -1.41421377658844 1.0
-1.4142132997512817 -1.41421377658844 -1.0
-1.1111400127410889 -1.6629395484924316 1.0
-1.1111400127410889 -1.6629395484924316 -1.0
-0.76536625623703 -1.8477593660354614 1.0
-0.76536625623703 -1.8477593660354614 -1.0
-0.390180766582489 -1.9615705013275146 1.0
-0.390180766582489 -1.9615705013275146 -1.0
2.384976127700611e-08 -2.0 1.0
2.384976127700611e-08 -2.0 -1.0
0.3901808261871338 -1.9615705013275146 1.0
0.3901808261871338 -1.9615705013275146 -1.0
0.7653672099113464 -1.8477588891983032 1.0
0.7653672099113464 -1.8477588891983032 -1.0
1.1111408472061157 -1.6629389524459839 1.0
1.1111408472061157 -1.6629389524459839 -1.0
1.414214015007019 -1.4142130613327026 1.0
1.414214015007019 -1.4142130613327026 -1.0
1.662939190864563 -1.1111406087875366 1.0
1.662939190864563 -1.1111406087875366 -1.0
1.8477591276168823 -0.7653668522834778 1.0
1.8477591276168823 -0.7653668522834778 -1.0
1.9615706205368042 -0.39018046855926514 1.0
1.9615706205368042 -0.39018046855926514 -1.0
3 0 1 2 224 127 85 0
3 0 2 3 224 127 85 0
3 1 4 5 224 127 85 0
3 1 5 2 224 127 85 0
3 4 6 7 224 127 85 0
3 4 7 5 224 127 85 0
3 6 8 9 224 127 85 0
3 6 9 7 224 127 85 0
3 8 10 11 86 85 224 1
3 8 11 9 86 85 224 1
3 10 12 13 86 85 224 1
3 10 13 11 86 85 224 1
3 12 14 15 86 85 224 1
3 12 15 13 86 85 224 1
3 14 16 17 86 85 224 1
3 14 17 15 86 85 224 1
3 16 18 19 86 85 224 1
3 16 19 17 86 85 224 1
3 18 20 21 86 85 224 1
3 18 21 19 86 85 224 1
3 20 22 23 86 85 224 1
3 20 23 21 86 85 224 1
3 22 24 25 86 85 224 1
3 22 25 23 86 85 224 1
3 24 26 27 125 224 85 2
3 24 27 25 125 224 85 2
3 26 28 29 125 224 85 2
3 26 29 27 125 224 85 2
3 28 30 31 125 224 85 2
3 28 31 29 125 224 85 2
3 30 32 33 125 224 85 2
3 30 33 31 125 224 85 2
3 32 34 35 125 224 85 2
3 32 35 33 125 224 85 2
3 34 36 37 125 224 85 2
3 34 37 35 125 224 85 2
3 36 38 39 125 224 85 2
3 36 39 37 125 224 85 2
3 38 40 41 125 224 85 2
3 38 41 39 125 224 85 2
3 40 42 43 224 85 165 3
3 40 43 41 224 85 165 3
3 42 44 45 224 85 165 3
3 42 45 43 224 85 165 3
3 44 46 47 224 85 165 3
3 44 47 45 224 85 165 3
3 46 48 49 224 85 165 3
3 46 49 47 224 85 165 3
3 48 50 51 224 85 165 3
3 48 51 49 224 85 165 3
3 50 52 53 224 85 165 3
3 50 53 51 224 85 165 3
3 52 54 55 224 85 165 3
3 52 55 53 224 85 165 3
3 54 56 57 224 85 165 3
3 54 57 55 224 85 165 3
3 56 58 59 224 127 85 0
3 56 59 57 224 127 85 0
3 58 60 61 224 127 85 0
3 58 61 59 224 127 85 0
3 60 62 63 224 127 85 0
3 60 63 61 224 127 85 0
3 62 0 3 224 127 85 0
3 62 3 63 224 127 85 0
3 64 65 66 85 206 224 4
3 64 67 65 85 206 224 4
3 66 68 69 85 206 224 4
3 66 65 68 85 206 224 4
3 69 70 71 85 206 224 4
3 69 68 70 85 206 224 4
3 71 72 73 85 206 224 4
3 71 70 72 85 206 224 4
3 73 74 75 85 206 224 4
3 73 72 74 85 206 224 4
3 75 76 77 85 206 224 4
3 75 74 76 85 206 224 4
3 77 78 79 85 206 224 4
3 77 76 78 85 206 224 4
3 79 80 81 85 206 224 4
3 79 78 80 85 206 224 4
3 81 82 83 85 206 224 4
3 81 80 82 85 206 224 4
3 83 84 85 85 206 224 4
3 83 82 84 85 206 224 4
3 85 86 87 85 206 224 4
3 85 84 86 85 206 224 4
3 87 88 89 85 206 224 4
3 87 86 88 85 206 224 4
3 89 90 91 85 206 224 4
3 89 88 90 85 206 224 4
3 91 92 93 85 206 224 4
3 91 90 92 85 206 224 4
3 93 94 95 85 206 224 4
3 93 92 94 85 206 224 4
3 95 96 97 85 206 224 4
3 95 94 96 85 206 224 4
3 97 98 99 85 206 224 4
3 97 96 98 85 206 224 4
3 99 100 101 85 206 224 4
3 99 98 100 85 206 224 4
3 101 102 103 85 206 224 4
3 101 100 102 85 206 224 4
3 103 104 105 85 206 224 4
3 103 102 104 85 206 224 4
3 105 106 107 85 206 224 4
3 105 104 106 85 206 224 4
3 107 108 109 85 206 224 4
3 107 106 108 85 206 224 4
3 109 110 111 85 206 224 4
3 109 108 110 85 206 224 4
3 111 112 113 85 206 224 4
3 111 110 112 85 206 224 4
3 113 114 115 85 206 224 4
3 113 112 114 85 206 224 4
3 115 116 117 85 206 224 4
3 115 114 116 85 206 224 4
3 117 118 119 85 206 224 4
3 117 116 118 85 206 224 4
3 119 120 121 85 206 224 4
3 119 118 120 85 206 224 4
3 121 122 123 85 206 224 4
3 121 120 122 85 206 224 4
3 123 124 125 85 206 224 4
3 123 122 124 85 206 224 4
3 125 126 127 85 206 224 4
3 125 124 126 85 206 224 4
3 127 67 64 85 206 224 4
3 127 126 67 85 206 224 4
3 3 2 65 224 202 85 5
3 3 65 67 224 202 85 5
3 2 5 68 224 202 85 5
3 2 68 65 224 202 85 5
3 5 7 70 224 202 85 5
3 5 70 68 224 202 85 5
3 7 9 72 224 202 85 5
3 7 72 70 224 202 85 5
3 9 11 74 224 202 85 5
3 9 74 72 224 202 85 5
3 11 13 76 224 202 85 5
3 11 76 74 224 202 85 5
3 13 15 78 224 202 85 5
3 13 78 76 224 202 85 5
3 15 17 80 224 202 85 5
3 15 80 78 224 202 85 5
3 17 19 82 224 202 85 5
3 17 82 80 224 202 85 5
3 19 21 84 224 202 85 5
3 19 84 82 224 202 85 5
3 21 23 86 224 202 85 5
3 21 86 84 224 202 85 5
3 23 25 88 224 202 85 5
3 23 88 86 224 202 85 5
3 25 27 90 224 202 85 5
3 25 90 88 224 202 85 5
3 27 29 92 224 202 85 5
3 27 92 90 224 202 85 5
3 29 31 94 224 202 85 5
3 29 94 92 224 202 85 5
3 31 33 96 224 202 85 5
3 31 96 94 224 202 85 5
3 33 35 98 224 202 85 5
3 33 98 96 224 202 85 5
3 35 37 100 224 202 85 5
3 35 100 98 224 202 85 5
3 37 39 102 224 202 85 5
3 37 102 100 224 202 85 5
3 39 41 104 224 202 85 5
3 39 104 102 224 202 85 5
3 41 43 106 224 202 85 5
3 41 106 104 224 202 85 5
3 43 45 108 224 202 85 5
3 43 108 106 224 202 85 5
3 45 47 110 224 202 85 5
3 45 110 108 224 202 85 5
3 47 49 112 224 202 85 5
3 47 112 110 224 202 85 5
3 49 51 114 224 202 85 5
3 49 114 112 224 202 85 5
3 51 53 116 224 202 85 5
3 51 116 114 224 202 85 5
3 53 55 118 224 202 85 5
3 53 118 116 224 202 85 5
3 55 57 120 224 202 85 5
3 55 120 118 224 202 85 5
3 57 59 122 224 202 85 5
3 57 122 120 224 202 85 5
3 59 61 124 224 202 85 5
3 59 124 122 224 202 85 5
3 61 63 126 224 202 85 5
3 61 126 124 224 202 85 5
3 63 3 67 224 202 85 5
3 63 67 126 224 202 85 5
3 0 66 1 162 85 224 6
3 0 64 66 162 85 224 6
3 1 69 4 162 85 224 6
3 1 66 69 162 85 224 6
3 4 71 6 162 85 224 6
3 4 69 71 162 85 224 6
3 6 73 8 162 85 224 6
3 6 71 73 162 85 224 6
3 8 75 10 162 85 224 6
3 8 73 75 162 85 224 6
3 10 77 12 162 85 224 6
3 10 75 77 162 85 224 6
3 12 79 14 162 85 224 6
3 12 77 79 162 85 224 6
3 14 81 16 162 85 224 6
3 14 79 81 162 85 224 6
3 16 83 18 162 85 224 6
3 16 81 83 162 85 224 6
3 18 85 20 162 85 224 6
3 18 83 85 162 85 224 6
3 20 87 22 162 85 224 6
3 20 85 87 162 85 224 6
3 22 89 24 162 85 224 6
3 22 87 89 162 85 224 6
3 24 91 26 162 85 224 6
3 24 89 91 162 85 224 6
3 26 93 28 162 85 224 6
3 26 91 93 162 85 224 6
3 28 95 30 162 85 224 6
3 28 93 95 162 85 224 6
3 30 97 32 162 85 224 6
3 30 95 97 162 85 224 6
3 32 99 34 162 85 224 6
3 32 97 99 162 85 224 6
3 34 101 36 162 85 224 6
3 34 99 101 162 85 224 6
3 36 103 38 162 85 224 6
3 36 101 103 162 85 224 6
3 38 105 40 162 85 224 6
3 38 103 105 162 85 224 6
3 40 107 42 162 85 224 6
3 40 105 107 162 85 224 6
3 42 109 44 162 85 224 6
3 42 107 109 162 85 224 6
3 44 111 46 162 85 224 6
3 44 109 111 162 85 224 6
3 46 113 48 162 85 224 6
3 46 111 113 162 85 224 6
3 48 115 50 162 85 224 6
3 48 113 115 162 85 224 6
3 50 117 52 162 85 224 6
3 50 115 117 162 85 224 6
3 52 119 54 162 85 224 6
3 52 117 119 162 85 224 6
3 54 121 56 162 85 224 6
3 54 119 121 162 85 224 6
3 56 123 58 162 85 224 6
3 56 121 123 162 85 224 6
3 58 125 60 162 85 224 6
3 58 123 125 162 85 224 6
3 60 127 62 162 85 224 6
3 60 125 127 162 85 224 6
3 62 64 0 162 85 224 6
3 62 127 64 162 85 224 6
