ply
format ascii 1.0
element vertex 66
property float x
property float y
property float z
element face 128
property list uchar int vertex_indices
property uchar red
property uchar green
property uchar blue
property int segment_id
end_header
2.0 0.0 -3.0
1.9615705013275146 0.39018064737319946 -3.0
1.9615705013275146 0.39018064737319946 3.0
2.0 0.0 3.0
1.8477590084075928 0.7653669118881226 -3.0
1.8477590084075928 0.7653669118881226 3.0
1.662939190864563 1.111140489578247 -3.0
1.662939190864563 1.111140489578247 3.0
1.4142135381698608 1.4142135381698608 -3.0
1.4142135381698608 1.4142135381698608 3.0
1.1111403703689575 1.6629393100738525 -3.0
1.1111403703689575 1.6629393100738525 3.0
0.7653668522834778 1.8477590084075928 -3.0
0.7653668522834778 1.8477590084075928 3.0
0.39018046855926514 1.9615706205368042 -3.0
0.39018046855926514 1.9615706205368042 3.0
-8.742277657347586e-08 2.0 -3.0
-8.742277657347586e-08 2.0 3.0
-0.39018064737319946 1.9615705013275146 -3.0
-0.39018064737319946 1.9615705013275146 3.0
-0.7653670310974121 1.8477590084075928 -3.0
-0.7653670310974121 1.8477590084075928 3.0
-1.1111407279968262 1.6629390716552734 -3.0
-1.1111407279968262 1.6629390716552734 3.0
-1.4142135381698608 1.4142135381698608 -3.0
-1.4142135381698608 1.4142135381698608 3.0
-1.6629393100738525 1.1111403703689575 -3.0
-1.6629393100738525 1.1111403703689575 3.0
-1.8477592468261719 0.7653665542602539 -3.0
-1.8477592468261719 0.7653665542602539 3.0
-1.9615706205368042 0.3901806175708771 -3.0
-1.9615706205368042 0.3901806175708771 3.0
-2.0 -1.7484555314695172e-07 -3.0
-2.0 -1.7484555314695172e-07 3.0
-1.9615705013275146 -0.3901809751987457 -3.0
-1.9615705013275146 -0.3901809751987457 3.0
-1.8477590084075928 -0.7653668522834778 -3.0
-1.8477590084075928 -0.7653668522834778 3.0
-1.6629390716552734 -1.1111406087875366 -3.0
-1.6629390716552734 -1.1111406087875366 3.0
-1.4142132997512817 -1.41421377658844 -3.0
-1.4142132997512817 -1.41421377658844 3.0
-1.1111400127410889 -1.6629395484924316 -3.0
-1.1111400127410889 -1.6629395484924316 3.0
-0.76536625623703 -1.8477593660354614 -3.0
-0.76536625623703 -1.8477593660354614 3.0
-0.390180766582489 -1.9615705013275146 -3.0
-0.390180766582489 -1.9615705013275146 3.0
2.384976127700611e-08 -2.0 -3.0
2.384976127700611e-08 -2.0 3.0
0.3901808261871338 -1.9615705013275146 -3.0
0.3901808261871338 -1.9615705013275146 3.0
0.7653672099113464 -1.8477588891983032 -3.0
0.7653672099113464 -1.8477588891983032 3.0
1.1111408472061157 -1.6629389524459839 -3.0
1.1111408472061157 -1.6629389524459839 3.0
1.414214015007019 -1.4142130613327026 -3.0
1.414214015007019 -1.4142130613327026 3.0
1.662939190864563 -1.1111406087875366 -3.0
1.662939190864563 -1.1111406087875366 3.0
1.8477591276168823 -0.7653668522834778 -3.0
1.8477591276168823 -0.7653668522834778 3.0
1.9615706205368042 -0.39018046855926514 -3.0
1.9615706205368042 -0.39018046855926514 3.0
0.0 0.0 -3.0
0.0 0.0 3.0
3 0 1 2 224 127 85 0
3 0 2 3 224 127 85 0
3 1 4 5 224 127 85 0
3 1 5 2 224 127 85 0
3 4 6 7 224 127 85 0
3 4 7 5 224 127 85 0
3 6 8 9 224 127 85 0
3 6 9 7 224 127 85 0
3 8 10 11 224 127 85 0
3 8 11 9 224 127 85 0
3 10 12 13 224 127 85 0
3 10 13 11 224 127 85 0
3 12 14 15 224 127 85 0
3 12 15 13 224 127 85 0
3 14 16 17 224 127 85 0
3 14 17 15 224 127 85 0
3 16 18 19 224 127 85 0
3 16 19 17 224 127 85 0
3 18 20 21 224 127 85 0
3 18 21 19 224 127 85 0
3 20 22 23 224 127 85 0
3 20 23 21 224 127 85 0
3 22 24 25 224 127 85 0
3 22 25 23 224 127 85 0
3 24 26 27 224 127 85 0
3 24 27 25 224 127 85 0
3 26 28 29 224 127 85 0
3 26 29 27 224 127 85 0
3 28 30 31 224 127 85 0
3 28 31 29 224 127 85 0
3 30 32 33 224 127 85 0
3 30 33 31 224 127 85 0
3 32 34 35 224 127 85 0
3 32 35 33 224 127 85 0
3 34 36 37 224 127 85 0
3 34 37 35 224 127 85 0
3 36 38 39 224 127 85 0
3 36 39 37 224 127 85 0
3 38 40 41 224 127 85 0
3 38 41 39 224 127 85 0
3 40 42 43 224 127 85 0
3 40 43 41 224 127 85 0
3 42 44 45 224 127 85 0
3 42 45 43 224 127 85 0
3 44 46 47 224 127 85 0
3 44 47 45 224 127 85 0
3 46 48 49 224 127 85 0
3 46 49 47 224 127 85 0
3 48 50 51 224 127 85 0
3 48 51 49 224 127 85 0
3 50 52 53 224 127 85 0
3 50 53 51 224 127 85 0
3 52 54 55 224 127 85 0
3 52 55 53 224 127 85 0
3 54 56 57 224 127 85 0
3 54 57 55 224 127 85 0
3 56 58 59 224 127 85 0
3 56 59 57 224 127 85 0
3 58 60 61 224 127 85 0
3 58 61 59 224 127 85 0
3 60 62 63 224 127 85 0
3 60 63 61 224 127 85 0
3 62 0 3 224 127 85 0
3 62 3 63 224 127 85 0
3 64 1 0 86 85 224 1
3 64 4 1 86 85 224 1
3 64 6 4 86 85 224 1
3 64 8 6 86 85 224 1
3 64 10 8 86 85 224 1
3 64 12 10 86 85 224 1
3 64 14 12 86 85 224 1
3 64 16 14 86 85 224 1
3 64 18 16 86 85 224 1
3 64 20 18 86 85 224 1
3 64 22 20 86 85 224 1
3 64 24 22 86 85 224 1
3 64 26 24 86 85 224 1
3 64 28 26 86 85 224 1
3 64 30 28 86 85 224 1
3 64 32 30 86 85 224 1
3 64 34 32 86 85 224 1
3 64 36 34 86 85 224 1
3 64 38 36 86 85 224 1
3 64 40 38 86 85 224 1
3 64 42 40 86 85 224 1
3 64 44 42 86 85 224 1
3 64 46 44 86 85 224 1
3 64 48 46 86 85 224 1
3 64 50 48 86 85 224 1
3 64 52 50 86 85 224 1
3 64 54 52 86 85 224 1
3 64 56 54 86 85 224 1
3 64 58 56 86 85 224 1
3 64 60 58 86 85 224 1
3 64 62 60 86 85 224 1
3 64 0 62 86 85 224 1
3 65 3 2 125 224 85 2
3 65 2 5 125 224 85 2
3 65 5 7 125 224 85 2
3 65 7 9 125 224 85 2
3 65 9 11 125 224 85 2
3 65 11 13 125 224 85 2
3 65 13 15 125 224 85 2
3 65 15 17 125 224 85 2
3 65 17 19 125 224 85 2
3 65 19 21 125 224 85 2
3 65 21 23 125 224 85 2
3 65 23 25 125 224 85 2
3 65 25 27 125 224 85 2
3 65 27 29 125 224 85 2
3 65 29 31 125 224 85 2
3 65 31 33 125 224 85 2
3 65 33 35 125 224 85 2
3 65 35 37 125 224 85 2
3 65 37 39 125 224 85 2
3 65 39 41 125 224 85 2
3 65 41 43 125 224 85 2
3 65 43 45 125 224 85 2
3 65 45 47 125 224 85 2
3 65 47 49 125 224 85 2
3 65 49 51 125 224 85 2
3 65 51 53 125 224 85 2
3 65 53 55 125 224 85 2
3 65 55 57 125 224 85 2
3 65 57 59 125 224 85 2
3 65 59 61 125 224 85 2
3 65 61 63 125 224 85 2
3 65 63 3 125 224 85 2
