ply
format ascii 1.0
element vertex 12
property float x
property float y
property float z
element face 20
property list uchar int vertex_indices
property uchar red
property uchar green
property uchar blue
property int segment_id
end_header
0.0 0.0 0.0
30.0 0.0 0.0
30.0 0.0 10.0
0.0 0.0 10.0
30.0 5.0 0.0
30.0 5.0 10.0
5.0 5.0 0.0
5.0 5.0 10.0
5.0 20.0 0.0
5.0 20.0 10.0
0.0 20.0 0.0
0.0 20.0 10.0
3 0 1 2 224 127 85 0
3 0 2 3 224 127 85 0
3 1 4 5 86 85 224 1
3 1 5 2 86 85 224 1
3 4 6 7 125 224 85 2
3 4 7 5 125 224 85 2
3 6 8 9 224 85 165 3
3 6 9 7 224 85 165 3
3 8 10 11 85 206 224 4
3 8 11 9 85 206 224 4
3 10 0 3 224 202 85 5
3 10 3 11 224 202 85 5
3 0 4 1 162 85 224 6
3 0 6 4 162 85 224 6
3 0 8 6 162 85 224 6
3 0 10 8 162 85 224 6
3 3 2 5 85 224 121 7
3 3 5 7 85 224 121 7
3 3 7 9 85 224 121 7
3 3 9 11 85 224 121 7
