ply
format ascii 1.0
element vertex 192
property float x
property float y
property float z
element face 384
property list uchar int vertex_indices
property uchar red
property uchar green
property uchar blue
property int segment_id
end_header
7.999998569488525 0.0 -5.0
7.434877872467041 0.978820264339447 -5.0
7.434877872467041 0.978820264339447 5.0
7.999998569488525 0.0 5.0
6.928203105926514 1.8564064502716064 -5.0
6.928203105926514 1.8564064502716064 5.0
6.456057548522949 2.674186944961548 -5.0
6.456057548522949 2.674186944961548 5.0
6.0 3.464101552963257 -5.0
6.0 3.464101552963257 5.0
5.543942451477051 4.254016876220703 -5.0
5.543942451477051 4.254016876220703 5.0
5.071796417236328 5.071796417236328 -5.0
5.071796417236328 5.071796417236328 5.0
4.565121650695801 5.949383735656738 -5.0
4.565121650695801 5.949383735656738 5.0
3.999999523162842 6.928203105926514 -5.0
3.999999523162842 6.928203105926514 5.0
2.869755744934082 6.928203105926514 -5.0
2.869755744934082 6.928203105926514 5.0
1.8564056158065796 6.928203105926514 -5.0
1.8564056158065796 6.928203105926514 5.0
0.9121147394180298 6.928203105926514 -5.0
0.9121147394180298 6.928203105926514 5.0
-3.0284138574643293e-07 6.928203105926514 -5.0
-3.0284138574643293e-07 6.928203105926514 5.0
-0.9121153950691223 6.928203105926514 -5.0
-0.9121153950691223 6.928203105926514 5.0
-1.8564072847366333 6.928203105926514 -5.0
-1.8564072847366333 6.928203105926514 5.0
-2.869755506515503 6.928203105926514 -5.0
-2.869755506515503 6.928203105926514 5.0
-4.000000476837158 6.928203105926514 -5.0
-4.000000476837158 6.928203105926514 5.0
-4.565123081207275 5.949383735656738 -5.0
-4.565123081207275 5.949383735656738 5.0
-5.071796417236328 5.071796417236328 -5.0
-5.071796417236328 5.071796417236328 5.0
-5.543942451477051 4.254016876220703 -5.0
-5.543942451477051 4.254016876220703 5.0
-6.000000476837158 3.4641003608703613 -5.0
-6.000000476837158 3.4641003608703613 5.0
-6.456058025360107 2.6741855144500732 -5.0
-6.456058025360107 2.6741855144500732 5.0
-6.928203105926514 1.8564053773880005 -5.0
-6.928203105926514 1.8564053773880005 5.0
-7.434876441955566 0.9788210391998291 -5.0
-7.434876441955566 0.9788210391998291 5.0
-7.999999523162842 -6.99382155744388e-07 -5.0
-7.999999523162842 -6.99382155744388e-07 5.0
-7.434878349304199 -0.9788208603858948 -5.0
-7.434878349304199 -0.9788208603858948 5.0
-6.92820405960083 -1.856406807899475 -5.0
-6.92820405960083 -1.856406807899475 5.0
-6.456057071685791 -2.6741883754730225 -5.0
-6.456057071685791 -2.6741883754730225 5.0
-5.999999523162842 -3.4641029834747314 -5.0
-5.999999523162842 -3.4641029834747314 5.0
-5.543942928314209 -4.254016399383545 -5.0
-5.543942928314209 -4.254016399383545 5.0
-5.071796417236328 -5.07179594039917 -5.0
-5.071796417236328 -5.07179594039917 5.0
-4.565122127532959 -5.9493818283081055 -5.0
-4.565122127532959 -5.9493818283081055 5.0
-3.9999990463256836 -6.928203105926514 -5.0
-3.9999990463256836 -6.928203105926514 5.0
-2.869753122329712 -6.928203105926514 -5.0
-2.869753122329712 -6.928203105926514 5.0
-1.8564058542251587 -6.928203105926514 -5.0
-1.8564058542251587 -6.928203105926514 5.0
-0.9121133089065552 -6.928203105926514 -5.0
-0.9121133089065552 -6.928203105926514 5.0
8.261799422371041e-08 -6.928203105926514 -5.0
8.261799422371041e-08 -6.928203105926514 5.0
0.9121167659759521 -6.928203105926514 -5.0
0.9121167659759521 -6.928203105926514 5.0
1.8564062118530273 -6.928203105926514 -5.0
1.8564062118530273 -6.928203105926514 5.0
2.8697574138641357 -6.928203105926514 -5.0
2.8697574138641357 -6.928203105926514 5.0
4.000002384185791 -6.928201198577881 -5.0
4.000002384185791 -6.928201198577881 5.0
4.565123081207275 -5.949382781982422 -5.0
4.565123081207275 -5.949382781982422 5.0
5.071798324584961 -5.0717949867248535 -5.0
5.071798324584961 -5.0717949867248535 5.0
5.543942928314209 -4.254016399383545 -5.0
5.543942928314209 -4.254016399383545 5.0
6.000000953674316 -3.464099884033203 -5.0
6.000000953674316 -3.464099884033203 5.0
6.456057071685791 -2.6741862297058105 -5.0
6.456057071685791 -2.6741862297058105 5.0
6.928201675415039 -1.856407880783081 -5.0
6.928201675415039 -1.856407880783081 5.0
7.434878826141357 -0.9788169860839844 -5.0
7.434878826141357 -0.9788169860839844 5.0
4.0 0.0 -5.0
3.9657795429229736 0.522104799747467 5.0
3.9657795429229736 0.522104799747467 -5.0
4.0 0.0 5.0
3.8637032508850098 1.035276174545288 5.0
3.8637032508850098 1.035276174545288 -5.0
3.6955180168151855 1.5307338237762451 5.0
3.6955180168151855 1.5307338237762451 -5.0
3.464101552963257 2.0 5.0
3.464101552963257 2.0 -5.0
3.1734132766723633 2.4350459575653076 5.0
3.1734132766723633 2.4350459575653076 -5.0
2.8284270763397217 2.8284270763397217 5.0
2.8284270763397217 2.8284270763397217 -5.0
2.4350454807281494 3.1734135150909424 5.0
2.4350454807281494 3.1734135150909424 -5.0
1.9999998807907104 3.464101791381836 5.0
1.9999998807907104 3.464101791381836 -5.0
1.5307337045669556 3.6955180168151855 5.0
1.5307337045669556 3.6955180168151855 -5.0
1.0352758169174194 3.863703489303589 5.0
1.0352758169174194 3.863703489303589 -5.0
0.5221045017242432 3.9657795429229736 5.0
0.5221045017242432 3.9657795429229736 -5.0
-1.7484555314695172e-07 4.0 5.0
-1.7484555314695172e-07 4.0 -5.0
-0.5221048593521118 3.9657795429229736 5.0
-0.5221048593521118 3.9657795429229736 -5.0
-1.0352766513824463 3.8637032508850098 5.0
-1.0352766513824463 3.8637032508850098 -5.0
-1.530733585357666 3.6955182552337646 5.0
-1.530733585357666 3.6955182552337646 -5.0
-2.000000238418579 3.464101552963257 5.0
-2.000000238418579 3.464101552963257 -5.0
-2.4350457191467285 3.1734132766723633 5.0
-2.4350457191467285 3.1734132766723633 -5.0
-2.8284270763397217 2.8284270763397217 5.0
-2.8284270763397217 2.8284270763397217 -5.0
-3.1734132766723633 2.4350457191467285 5.0
-3.1734132766723633 2.4350457191467285 -5.0
-3.464102029800415 1.9999992847442627 5.0
-3.464102029800415 1.9999992847442627 -5.0
-3.6955184936523438 1.5307331085205078 5.0
-3.6955184936523438 1.5307331085205078 -5.0
-3.863703489303589 1.0352756977081299 5.0
-3.863703489303589 1.0352756977081299 -5.0
-3.9657793045043945 0.5221052765846252 5.0
-3.9657793045043945 0.5221052765846252 -5.0
-4.0 -3.4969110629390343e-07 5.0
-4.0 -3.4969110629390343e-07 -5.0
-3.9657793045043945 -0.5221050381660461 5.0
-3.9657793045043945 -0.5221050381660461 -5.0
-3.8637032508850098 -1.0352762937545776 5.0
-3.8637032508850098 -1.0352762937545776 -5.0
-3.6955177783966064 -1.530734658241272 5.0
-3.6955177783966064 -1.530734658241272 -5.0
-3.4641010761260986 -2.0000007152557373 5.0
-3.4641010761260986 -2.0000007152557373 -5.0
-3.1734135150909424 -2.4350454807281494 5.0
-3.1734135150909424 -2.4350454807281494 -5.0
-2.828427314758301 -2.8284268379211426 5.0
-2.828427314758301 -2.8284268379211426 -5.0
-2.4350459575653076 -3.173413038253784 5.0
-2.4350459575653076 -3.173413038253784 -5.0
-1.9999996423721313 -3.464101791381836 5.0
-1.9999996423721313 -3.464101791381836 -5.0
-1.53073251247406 -3.695518732070923 5.0
-1.53073251247406 -3.695518732070923 -5.0
-1.035275936126709 -3.863703489303589 5.0
-1.035275936126709 -3.863703489303589 -5.0
-0.5221036672592163 -3.9657795429229736 5.0
-0.5221036672592163 -3.9657795429229736 -5.0
4.769952255401222e-08 -4.0 5.0
4.769952255401222e-08 -4.0 -5.0
0.5221056342124939 -3.9657793045043945 5.0
0.5221056342124939 -3.9657793045043945 -5.0
1.0352760553359985 -3.8637032508850098 5.0
1.0352760553359985 -3.8637032508850098 -5.0
1.5307344198226929 -3.6955177783966064 5.0
1.5307344198226929 -3.6955177783966064 -5.0
2.0000014305114746 -3.4641008377075195 5.0
2.0000014305114746 -3.4641008377075195 -5.0
2.4350461959838867 -3.173413038253784 5.0
2.4350461959838867 -3.173413038253784 -5.0
2.828428030014038 -2.8284261226654053 5.0
2.828428030014038 -2.8284261226654053 -5.0
3.1734135150909424 -2.4350454807281494 5.0
3.1734135150909424 -2.4350454807281494 -5.0
3.464102268218994 -1.9999990463256836 5.0
3.464102268218994 -1.9999990463256836 -5.0
3.6955182552337646 -1.5307337045669556 5.0
3.6955182552337646 -1.5307337045669556 -5.0
3.8637030124664307 -1.0352771282196045 5.0
3.8637030124664307 -1.0352771282196045 -5.0
3.9657797813415527 -0.5221030116081238 5.0
3.9657797813415527 -0.5221030116081238 -5.0
3 0 1 2 224 127 85 0
3 0 2 3 224 127 85 0
3 1 4 5 224 127 85 0
3 1 5 2 224 127 85 0
3 4 6 7 224 127 85 0
3 4 7 5 224 127 85 0
3 6 8 9 224 127 85 0
3 6 9 7 224 127 85 0
3 8 10 11 224 127 85 0
3 8 11 9 224 127 85 0
3 10 12 13 224 127 85 0
3 10 13 11 224 127 85 0
3 12 14 15 224 127 85 0
3 12 15 13 224 127 85 0
3 14 16 17 224 127 85 0
3 14 17 15 224 127 85 0
3 16 18 19 86 85 224 1
3 16 19 17 86 85 224 1
3 18 20 21 86 85 224 1
3 18 21 19 86 85 224 1
3 20 22 23 86 85 224 1
3 20 23 21 86 85 224 1
3 22 24 25 86 85 224 1
3 22 25 23 86 85 224 1
3 24 26 27 86 85 224 1
3 24 27 25 86 85 224 1
3 26 28 29 86 85 224 1
3 26 29 27 86 85 224 1
3 28 30 31 86 85 224 1
3 28 31 29 86 85 224 1
3 30 32 33 86 85 224 1
3 30 33 31 86 85 224 1
3 32 34 35 125 224 85 2
3 32 35 33 125 224 85 2
3 34 36 37 125 224 85 2
3 34 37 35 125 224 85 2
3 36 38 39 125 224 85 2
3 36 39 37 125 224 85 2
3 38 40 41 125 224 85 2
3 38 41 39 125 224 85 2
3 40 42 43 125 224 85 2
3 40 43 41 125 224 85 2
3 42 44 45 125 224 85 2
3 42 45 43 125 224 85 2
3 44 46 47 125 224 85 2
3 44 47 45 125 224 85 2
3 46 48 49 125 224 85 2
3 46 49 47 125 224 85 2
3 48 50 51 224 85 165 3
3 48 51 49 224 85 165 3
3 50 52 53 224 85 165 3
3 50 53 51 224 85 165 3
3 52 54 55 224 85 165 3
3 52 55 53 224 85 165 3
3 54 56 57 224 85 165 3
3 54 57 55 224 85 165 3
3 56 58 59 224 85 165 3
3 56 59 57 224 85 165 3
3 58 60 61 224 85 165 3
3 58 61 59 224 85 165 3
3 60 62 63 224 85 165 3
3 60 63 61 224 85 165 3
3 62 64 65 224 85 165 3
3 62 65 63 224 85 165 3
3 64 66 67 85 206 224 4
3 64 67 65 85 206 224 4
3 66 68 69 85 206 224 4
3 66 69 67 85 206 224 4
3 68 70 71 85 206 224 4
3 68 71 69 85 206 224 4
3 70 72 73 85 206 224 4
3 70 73 71 85 206 224 4
3 72 74 75 85 206 224 4
3 72 75 73 85 206 224 4
3 74 76 77 85 206 224 4
3 74 77 75 85 206 224 4
3 76 78 79 85 206 224 4
3 76 79 77 85 206 224 4
3 78 80 81 85 206 224 4
3 78 81 79 85 206 224 4
3 80 82 83 224 202 85 5
3 80 83 81 224 202 85 5
3 82 84 85 224 202 85 5
3 82 85 83 224 202 85 5
3 84 86 87 224 202 85 5
3 84 87 85 224 202 85 5
3 86 88 89 224 202 85 5
3 86 89 87 224 202 85 5
3 88 90 91 224 202 85 5
3 88 91 89 224 202 85 5
3 90 92 93 224 202 85 5
3 90 93 91 224 202 85 5
3 92 94 95 224 202 85 5
3 92 95 93 224 202 85 5
3 94 0 3 224 202 85 5
3 94 3 95 224 202 85 5
3 96 97 98 162 85 224 6
3 96 99 97 162 85 224 6
3 98 100 101 162 85 224 6
3 98 97 100 162 85 224 6
3 101 102 103 162 85 224 6
3 101 100 102 162 85 224 6
3 103 104 105 162 85 224 6
3 103 102 104 162 85 224 6
3 105 106 107 162 85 224 6
3 105 104 106 162 85 224 6
3 107 108 109 162 85 224 6
3 107 106 108 162 85 224 6
3 109 110 111 162 85 224 6
3 109 108 110 162 85 224 6
3 111 112 113 162 85 224 6
3 111 110 112 162 85 224 6
3 113 114 115 162 85 224 6
3 113 112 114 162 85 224 6
3 115 116 117 162 85 224 6
3 115 114 116 162 85 224 6
3 117 118 119 162 85 224 6
3 117 116 118 162 85 224 6
3 119 120 121 162 85 224 6
3 119 118 120 162 85 224 6
3 121 122 123 162 85 224 6
3 121 120 122 162 85 224 6
3 123 124 125 162 85 224 6
3 123 122 124 162 85 224 6
3 125 126 127 162 85 224 6
3 125 124 126 162 85 224 6
3 127 128 129 162 85 224 6
3 127 126 128 162 85 224 6
3 129 130 131 162 85 224 6
3 129 128 130 162 85 224 6
3 131 132 133 162 85 224 6
3 131 130 132 162 85 224 6
3 133 134 135 162 85 224 6
3 133 132 134 162 85 224 6
3 135 136 137 162 85 224 6
3 135 134 136 162 85 224 6
3 137 138 139 162 85 224 6
3 137 136 138 162 85 224 6
3 139 140 141 162 85 224 6
3 139 138 140 162 85 224 6
3 141 142 143 162 85 224 6
3 141 140 142 162 85 224 6
3 143 144 145 162 85 224 6
3 143 142 144 162 85 224 6
3 145 146 147 162 85 224 6
3 145 144 146 162 85 224 6
3 147 148 149 162 85 224 6
3 147 146 148 162 85 224 6
3 149 150 151 162 85 224 6
3 149 148 150 162 85 224 6
3 151 152 153 162 85 224 6
3 151 150 152 162 85 224 6
3 153 154 155 162 85 224 6
3 153 152 154 162 85 224 6
3 155 156 157 162 85 224 6
3 155 154 156 162 85 224 6
3 157 158 159 162 85 224 6
3 157 156 158 162 85 224 6
3 159 160 161 162 85 224 6
3 159 158 160 162 85 224 6
3 161 162 163 162 85 224 6
3 161 160 162 162 85 224 6
3 163 164 165 162 85 224 6
3 163 162 164 162 85 224 6
3 165 166 167 162 85 224 6
3 165 164 166 162 85 224 6
3 167 168 169 162 85 224 6
3 167 166 168 162 85 224 6
3 169 170 171 162 85 224 6
3 169 168 170 162 85 224 6
3 171 172 173 162 85 224 6
3 171 170 172 162 85 224 6
3 173 174 175 162 85 224 6
3 173 172 174 162 85 224 6
3 175 176 177 162 85 224 6
3 175 174 176 162 85 224 6
3 177 178 179 162 85 224 6
3 177 176 178 162 85 224 6
3 179 180 181 162 85 224 6
3 179 178 180 162 85 224 6
3 181 182 183 162 85 224 6
3 181 180 182 162 85 224 6
3 183 184 185 162 85 224 6
3 183 182 184 162 85 224 6
3 185 186 187 162 85 224 6
3 185 184 186 162 85 224 6
3 187 188 189 162 85 224 6
3 187 186 188 162 85 224 6
3 189 190 191 162 85 224 6
3 189 188 190 162 85 224 6
3 191 99 96 162 85 224 6
3 191 190 99 162 85 224 6
3 3 2 97 85 224 121 7
3 3 97 99 85 224 121 7
3 2 5 100 85 224 121 7
3 2 100 97 85 224 121 7
3 5 7 102 85 224 121 7
3 5 102 100 85 224 121 7
3 7 9 104 85 224 121 7
3 7 104 102 85 224 121 7
3 9 11 106 85 224 121 7
3 9 106 104 85 224 121 7
3 11 13 108 85 224 121 7
3 11 108 106 85 224 121 7
3 13 15 110 85 224 121 7
3 13 110 108 85 224 121 7
3 15 17 112 85 224 121 7
3 15 112 110 85 224 121 7
3 17 19 114 85 224 121 7
3 17 114 112 85 224 121 7
3 19 21 116 85 224 121 7
3 19 116 114 85 224 121 7
3 21 23 118 85 224 121 7
3 21 118 116 85 224 121 7
3 23 25 120 85 224 121 7
3 23 120 118 85 224 121 7
3 25 27 122 85 224 121 7
3 25 122 120 85 224 121 7
3 27 29 124 85 224 121 7
3 27 124 122 85 224 121 7
3 29 31 126 85 224 121 7
3 29 126 124 85 224 121 7
3 31 33 128 85 224 121 7
3 31 128 126 85 224 121 7
3 33 35 130 85 224 121 7
3 33 130 128 85 224 121 7
3 35 37 132 85 224 121 7
3 35 132 130 85 224 121 7
3 37 39 134 85 224 121 7
3 37 134 132 85 224 121 7
3 39 41 136 85 224 121 7
3 39 136 134 85 224 121 7
3 41 43 138 85 224 121 7
3 41 138 136 85 224 121 7
3 43 45 140 85 224 121 7
3 43 140 138 85 224 121 7
3 45 47 142 85 224 121 7
3 45 142 140 85 224 121 7
3 47 49 144 85 224 121 7
3 47 144 142 85 224 121 7
3 49 51 146 85 224 121 7
3 49 146 144 85 224 121 7
3 51 53 148 85 224 121 7
3 51 148 146 85 224 121 7
3 53 55 150 85 224 121 7
3 53 150 148 85 224 121 7
3 55 57 152 85 224 121 7
3 55 152 150 85 224 121 7
3 57 59 154 85 224 121 7
3 57 154 152 85 224 121 7
3 59 61 156 85 224 121 7
3 59 156 154 85 224 121 7
3 61 63 158 85 224 121 7
3 61 158 156 85 224 121 7
3 63 65 160 85 224 121 7
3 63 160 158 85 224 121 7
3 65 67 162 85 224 121 7
3 65 162 160 85 224 121 7
3 67 69 164 85 224 121 7
3 67 164 162 85 224 121 7
3 69 71 166 85 224 121 7
3 69 166 164 85 224 121 7
3 71 73 168 85 224 121 7
3 71 168 166 85 224 121 7
3 73 75 170 85 224 121 7
3 73 170 168 85 224 121 7
3 75 77 172 85 224 121 7
3 75 172 170 85 224 121 7
3 77 79 174 85 224 121 7
3 77 174 172 85 224 121 7
3 79 81 176 85 224 121 7
3 79 176 174 85 224 121 7
3 81 83 178 85 224 121 7
3 81 178 176 85 224 121 7
3 83 85 180 85 224 121 7
3 83 180 178 85 224 121 7
3 85 87 182 85 224 121 7
3 85 182 180 85 224 121 7
3 87 89 184 85 224 121 7
3 87 184 182 85 224 121 7
3 89 91 186 85 224 121 7
3 89 186 184 85 224 121 7
3 91 93 188 85 224 121 7
3 91 188 186 85 224 121 7
3 93 95 190 85 224 121 7
3 93 190 188 85 224 121 7
3 95 3 99 85 224 121 7
3 95 99 190 85 224 121 7
3 0 98 1 224 85 90 8
3 0 96 98 224 85 90 8
3 1 101 4 224 85 90 8
3 1 98 101 224 85 90 8
3 4 103 6 224 85 90 8
3 4 101 103 224 85 90 8
3 6 105 8 224 85 90 8
3 6 103 105 224 85 90 8
3 8 107 10 224 85 90 8
3 8 105 107 224 85 90 8
3 10 109 12 224 85 90 8
3 10 107 109 224 85 90 8
3 12 111 14 224 85 90 8
3 12 109 111 224 85 90 8
3 14 113 16 224 85 90 8
3 14 111 113 224 85 90 8
3 16 115 18 224 85 90 8
3 16 113 115 224 85 90 8
3 18 117 20 224 85 90 8
3 18 115 117 224 85 90 8
3 20 119 22 224 85 90 8
3 20 117 119 224 85 90 8
3 22 121 24 224 85 90 8
3 22 119 121 224 85 90 8
3 24 123 26 224 85 90 8
3 24 121 123 224 85 90 8
3 26 125 28 224 85 90 8
3 26 123 125 224 85 90 8
3 28 127 30 224 85 90 8
3 28 125 127 224 85 90 8
3 30 129 32 224 85 90 8
3 30 127 129 224 85 90 8
3 32 131 34 224 85 90 8
3 32 129 131 224 85 90 8
3 34 133 36 224 85 90 8
3 34 131 133 224 85 90 8
3 36 135 38 224 85 90 8
3 36 133 135 224 85 90 8
3 38 137 40 224 85 90 8
3 38 135 137 224 85 90 8
3 40 139 42 224 85 90 8
3 40 137 139 224 85 90 8
3 42 141 44 224 85 90 8
3 42 139 141 224 85 90 8
3 44 143 46 224 85 90 8
3 44 141 143 224 85 90 8
3 46 145 48 224 85 90 8
3 46 143 145 224 85 90 8
3 48 147 50 224 85 90 8
3 48 145 147 224 85 90 8
3 50 149 52 224 85 90 8
3 50 147 149 224 85 90 8
3 52 151 54 224 85 90 8
3 52 149 151 224 85 90 8
3 54 153 56 224 85 90 8
3 54 151 153 224 85 90 8
3 56 155 58 224 85 90 8
3 56 153 155 224 85 90 8
3 58 157 60 224 85 90 8
3 58 155 157 224 85 90 8
3 60 159 62 224 85 90 8
3 60 157 159 224 85 90 8
3 62 161 64 224 85 90 8
3 62 159 161 224 85 90 8
3 64 163 66 224 85 90 8
3 64 161 163 224 85 90 8
3 66 165 68 224 85 90 8
3 66 163 165 224 85 90 8
3 68 167 70 224 85 90 8
3 68 165 167 224 85 90 8
3 70 169 72 224 85 90 8
3 70 167 169 224 85 90 8
3 72 171 74 224 85 90 8
3 72 169 171 224 85 90 8
3 74 173 76 224 85 90 8
3 74 171 173 224 85 90 8
3 76 175 78 224 85 90 8
3 76 173 175 224 85 90 8
3 78 177 80 224 85 90 8
3 78 175 177 224 85 90 8
3 80 179 82 224 85 90 8
3 80 177 179 224 85 90 8
3 82 181 84 224 85 90 8
3 82 179 181 224 85 90 8
3 84 183 86 224 85 90 8
3 84 181 183 224 85 90 8
3 86 185 88 224 85 90 8
3 86 183 185 224 85 90 8
3 88 187 90 224 85 90 8
3 88 185 187 224 85 90 8
3 90 189 92 224 85 90 8
3 90 187 189 224 85 90 8
3 92 191 94 224 85 90 8
3 92 189 191 224 85 90 8
3 94 96 0 224 85 90 8
3 94 191 96 224 85 90 8
