ply
format ascii 1.0
element vertex 128
property float x
property float y
property float z
element face 256
property list uchar int vertex_indices
property uchar red
property uchar green
property uchar blue
property int segment_id
end_header
2.0 0.0 -0.25
1.9615705013275146 0.39018064737319946 -0.25
1.9615705013275146 0.39018064737319946 0.25
2.0 0.0 0.25
1.8477590084075928 0.7653669118881226 -0.25
1.8477590084075928 0.7653669118881226 0.25
1.662939190864563 1.111140489578247 -0.25
1.662939190864563 1.111140489578247 0.25
1.4142135381698608 1.4142135381698608 -0.25
1.4142135381698608 1.4142135381698608 0.25
1.1111403703689575 1.6629393100738525 -0.25
1.1111403703689575 1.6629393100738525 0.25
0.7653668522834778 1.8477590084075928 -0.25
0.7653668522834778 1.8477590084075928 0.25
0.39018046855926514 1.9615706205368042 -0.25
0.39018046855926514 1.9615706205368042 0.25
-8.742277657347586e-08 2.0 -0.25
-8.742277657347586e-08 2.0 0.25
-0.39018064737319946 1.9615705013275146 -0.25
-0.39018064737319946 1.9615705013275146 0.25
-0.7653670310974121 1.8477590084075928 -0.25
-0.7653670310974121 1.8477590084075928 0.25
-1.1111407279968262 1.6629390716552734 -0.25
-1.1111407279968262 1.6629390716552734 0.25
-1.4142135381698608 1.4142135381698608 -0.25
-1.4142135381698608 1.4142135381698608 0.25
-1.6629393100738525 1.1111403703689575 -0.25
-1.6629393100738525 1.1111403703689575 0.25
-1.8477592468261719 0.7653665542602539 -0.25
-1.8477592468261719 0.7653665542602539 0.25
-1.9615706205368042 0.3901806175708771 -0.25
-1.9615706205368042 0.3901806175708771 0.25
-2.0 -1.7484555314695172e-07 -0.25
-2.0 -1.7484555314695172e-07 0.25
-1.9615705013275146 -0.3901809751987457 -0.25
-1.9615705013275146 -0.3901809751987457 0.25
-1.8477590084075928 -0.7653668522834778 -0.25
-1.8477590084075928 -0.7653668522834778 0.25
-1.6629390716552734 -1.1111406087875366 -0.25
-1.6629390716552734 -1.1111406087875366 0.25
-1.4142132997512817 -1.41421377658844 -0.25
-1.4142132997512817 -1.41421377658844 0.25
-1.1111400127410889 -1.6629395484924316 -0.25
-1.1111400127410889 -1.6629395484924316 0.25
-0.76536625623703 -1.8477593660354614 -0.25
-0.76536625623703 -1.8477593660354614 0.25
-0.390180766582489 -1.9615705013275146 -0.25
-0.390180766582489 -1.9615705013275146 0.25
2.384976127700611e-08 -2.0 -0.25
2.384976127700611e-08 -2.0 0.25
0.3901808261871338 -1.9615705013275146 -0.25
0.3901808261871338 -1.9615705013275146 0.25
0.7653672099113464 -1.8477588891983032 -0.25
0.7653672099113464 -1.8477588891983032 0.25
1.1111408472061157 -1.6629389524459839 -0.25
1.1111408472061157 -1.6629389524459839 0.25
1.414214015007019 -1.4142130613327026 -0.25
1.414214015007019 -1.4142130613327026 0.25
1.662939190864563 -1.1111406087875366 -0.25
1.662939190864563 -1.1111406087875366 0.25
1.8477591276168823 -0.7653668522834778 -0.25
1.8477591276168823 -0.7653668522834778 0.25
1.9615706205368042 -0.39018046855926514 -0.25
1.9615706205368042 -0.39018046855926514 0.25
1.0 0.0 -0.25
0.9807852506637573 0.19509032368659973 0.25
0.9807852506637573 0.19509032368659973 -0.25
1.0 0.0 0.25
0.9238795042037964 0.3826834559440613 0.25
0.9238795042037964 0.3826834559440613 -0.25
0.8314695954322815 0.5555702447891235 0.25
0.8314695954322815 0.5555702447891235 -0.25
0.7071067690849304 0.7071067690849304 0.25
0.7071067690849304 0.7071067690849304 -0.25
0.5555701851844788 0.8314696550369263 0.25
0.5555701851844788 0.8314696550369263 -0.25
0.3826834261417389 0.9238795042037964 0.25
0.3826834261417389 0.9238795042037964 -0.25
0.19509023427963257 0.9807853102684021 0.25
0.19509023427963257 0.9807853102684021 -0.25
-4.371138828673793e-08 1.0 0.25
-4.371138828673793e-08 1.0 -0.25
-0.19509032368659973 0.9807852506637573 0.25
-0.19509032368659973 0.9807852506637573 -0.25
-0.38268351554870605 0.9238795042037964 0.25
-0.38268351554870605 0.9238795042037964 -0.25
-0.5555703639984131 0.8314695358276367 0.25
-0.5555703639984131 0.8314695358276367 -0.25
-0.7071067690849304 0.7071067690849304 0.25
-0.7071067690849304 0.7071067690849304 -0.25
-0.8314696550369263 0.5555701851844788 0.25
-0.8314696550369263 0.5555701851844788 -0.25
-0.9238796234130859 0.38268327713012695 0.25
-0.9238796234130859 0.38268327713012695 -0.25
-0.9807853102684021 0.19509030878543854 0.25
-0.9807853102684021 0.19509030878543854 -0.25
-1.0 -8.742277657347586e-08 0.25
-1.0 -8.742277657347586e-08 -0.25
-0.9807852506637573 -0.19509048759937286 0.25
-0.9807852506637573 -0.19509048759937286 -0.25
-0.9238795042037964 -0.3826834261417389 0.25
-0.9238795042037964 -0.3826834261417389 -0.25
-0.8314695358276367 -0.5555703043937683 0.25
-0.8314695358276367 -0.5555703043937683 -0.25
-0.7071066498756409 -0.70710688829422 0.25
-0.7071066498756409 -0.70710688829422 -0.25
-0.5555700063705444 -0.8314697742462158 0.25
-0.5555700063705444 -0.8314697742462158 -0.25
-0.382683128118515 -0.9238796830177307 0.25
-0.382683128118515 -0.9238796830177307 -0.25
-0.1950903832912445 -0.9807852506637573 0.25
-0.1950903832912445 -0.9807852506637573 -0.25
1.1924880638503055e-08 -1.0 0.25
1.1924880638503055e-08 -1.0 -0.25
0.1950904130935669 -0.9807852506637573 0.25
0.1950904130935669 -0.9807852506637573 -0.25
0.3826836049556732 -0.9238794445991516 0.25
0.3826836049556732 -0.9238794445991516 -0.25
0.5555704236030579 -0.8314694762229919 0.25
0.5555704236030579 -0.8314694762229919 -0.25
0.7071070075035095 -0.7071065306663513 0.25
0.7071070075035095 -0.7071065306663513 -0.25
0.8314695954322815 -0.5555703043937683 0.25
0.8314695954322815 -0.5555703043937683 -0.25
0.9238795638084412 -0.3826834261417389 0.25
0.9238795638084412 -0.3826834261417389 -0.25
0.9807853102684021 -0.19509023427963257 0.25
0.9807853102684021 -0.19509023427963257 -0.25
3 0 1 2 224 127 85 0
3 0 2 3 224 127 85 0
3 1 4 5 224 127 85 0
3 1 5 2 224 127 85 0
3 4 6 7 224 127 85 0
3 4 7 5 224 127 85 0
3 6 8 9 224 127 85 0
3 6 9 7 224 127 85 0
3 8 10 11 224 127 85 0
3 8 11 9 224 127 85 0
3 10 12 13 224 127 85 0
3 10 13 11 224 127 85 0
3 12 14 15 224 127 85 0
3 12 15 13 224 127 85 0
3 14 16 17 224 127 85 0
3 14 17 15 224 127 85 0
3 16 18 19 224 127 85 0
3 16 19 17 224 127 85 0
3 18 20 21 224 127 85 0
3 18 21 19 224 127 85 0
3 20 22 23 224 127 85 0
3 20 23 21 224 127 85 0
3 22 24 25 224 127 85 0
3 22 25 23 224 127 85 0
3 24 26 27 224 127 85 0
3 24 27 25 224 127 85 0
3 26 28 29 224 127 85 0
3 26 29 27 224 127 85 0
3 28 30 31 224 127 85 0
3 28 31 29 224 127 85 0
3 30 32 33 224 127 85 0
3 30 33 31 224 127 85 0
3 32 34 35 224 127 85 0
3 32 35 33 224 127 85 0
3 34 36 37 224 127 85 0
3 34 37 35 224 127 85 0
3 36 38 39 224 127 85 0
3 36 39 37 224 127 85 0
3 38 40 41 224 127 85 0
3 38 41 39 224 127 85 0
3 40 42 43 224 127 85 0
3 40 43 41 224 127 85 0
3 42 44 45 224 127 85 0
3 42 45 43 224 127 85 0
3 44 46 47 224 127 85 0
3 44 47 45 224 127 85 0
3 46 48 49 224 127 85 0
3 46 49 47 224 127 85 0
3 48 50 51 224 127 85 0
3 48 51 49 224 127 85 0
3 50 52 53 224 127 85 0
3 50 53 51 224 127 85 0
3 52 54 55 224 127 85 0
3 52 55 53 224 127 85 0
3 54 56 57 224 127 85 0
3 54 57 55 224 127 85 0
3 56 58 59 224 127 85 0
3 56 59 57 224 127 85 0
3 58 60 61 224 127 85 0
3 58 61 59 224 127 85 0
3 60 62 63 224 127 85 0
3 60 63 61 224 127 85 0
3 62 0 3 224 127 85 0
3 62 3 63 224 127 85 0
3 64 65 66 86 85 224 1
3 64 67 65 86 85 224 1
3 66 68 69 86 85 224 1
3 66 65 68 86 85 224 1
3 69 70 71 86 85 224 1
3 69 68 70 86 85 224 1
3 71 72 73 86 85 224 1
3 71 70 72 86 85 224 1
3 73 74 75 86 85 224 1
3 73 72 74 86 85 224 1
3 75 76 77 86 85 224 1
3 75 74 76 86 85 224 1
3 77 78 79 86 85 224 1
3 77 76 78 86 85 224 1
3 79 80 81 86 85 224 1
3 79 78 80 86 85 224 1
3 81 82 83 86 85 224 1
3 81 80 82 86 85 224 1
3 83 84 85 86 85 224 1
3 83 82 84 86 85 224 1
3 85 86 87 86 85 224 1
3 85 84 86 86 85 224 1
3 87 88 89 86 85 224 1
3 87 86 88 86 85 224 1
3 89 90 91 86 85 224 1
3 89 88 90 86 85 224 1
3 91 92 93 86 85 224 1
3 91 90 92 86 85 224 1
3 93 94 95 86 85 224 1
3 93 92 94 86 85 224 1
3 95 96 97 86 85 224 1
3 95 94 96 86 85 224 1
3 97 98 99 86 85 224 1
3 97 96 98 86 85 224 1
3 99 100 101 86 85 224 1
3 99 98 100 86 85 224 1
3 101 102 103 86 85 224 1
3 101 100 102 86 85 224 1
3 103 104 105 86 85 224 1
3 103 102 104 86 85 224 1
3 105 106 107 86 85 224 1
3 105 104 106 86 85 224 1
3 107 108 109 86 85 224 1
3 107 106 108 86 85 224 1
3 109 110 111 86 85 224 1
3 109 108 110 86 85 224 1
3 111 112 113 86 85 224 1
3 111 110 112 86 85 224 1
3 113 114 115 86 85 224 1
3 113 112 114 86 85 224 1
3 115 116 117 86 85 224 1
3 115 114 116 86 85 224 1
3 117 118 119 86 85 224 1
3 117 116 118 86 85 224 1
3 119 120 121 86 85 224 1
3 119 118 120 86 85 224 1
3 121 122 123 86 85 224 1
3 121 120 122 86 85 224 1
3 123 124 125 86 85 224 1
3 123 122 124 86 85 224 1
3 125 126 127 86 85 224 1
3 125 124 126 86 85 224 1
3 127 67 64 86 85 224 1
3 127 126 67 86 85 224 1
3 3 2 65 125 224 85 2
3 3 65 67 125 224 85 2
3 2 5 68 125 224 85 2
3 2 68 65 125 224 85 2
3 5 7 70 125 224 85 2
3 5 70 68 125 224 85 2
3 7 9 72 125 224 85 2
3 7 72 70 125 224 85 2
3 9 11 74 125 224 85 2
3 9 74 72 125 224 85 2
3 11 13 76 125 224 85 2
3 11 76 74 125 224 85 2
3 13 15 78 125 224 85 2
3 13 78 76 125 224 85 2
3 15 17 80 125 224 85 2
3 15 80 78 125 224 85 2
3 17 19 82 125 224 85 2
3 17 82 80 125 224 85 2
3 19 21 84 125 224 85 2
3 19 84 82 125 224 85 2
3 21 23 86 125 224 85 2
3 21 86 84 125 224 85 2
3 23 25 88 125 224 85 2
3 23 88 86 125 224 85 2
3 25 27 90 125 224 85 2
3 25 90 88 125 224 85 2
3 27 29 92 125 224 85 2
3 27 92 90 125 224 85 2
3 29 31 94 125 224 85 2
3 29 94 92 125 224 85 2
3 31 33 96 125 224 85 2
3 31 96 94 125 224 85 2
3 33 35 98 125 224 85 2
3 33 98 96 125 224 85 2
3 35 37 100 125 224 85 2
3 35 100 98 125 224 85 2
3 37 39 102 125 224 85 2
3 37 102 100 125 224 85 2
3 39 41 104 125 224 85 2
3 39 104 102 125 224 85 2
3 41 43 106 125 224 85 2
3 41 106 104 125 224 85 2
3 43 45 108 125 224 85 2
3 43 108 106 125 224 85 2
3 45 47 110 125 224 85 2
3 45 110 108 125 224 85 2
3 47 49 112 125 224 85 2
3 47 112 110 125 224 85 2
3 49 51 114 125 224 85 2
3 49 114 112 125 224 85 2
3 51 53 116 125 224 85 2
3 51 116 114 125 224 85 2
3 53 55 118 125 224 85 2
3 53 118 116 125 224 85 2
3 55 57 120 125 224 85 2
3 55 120 118 125 224 85 2
3 57 59 122 125 224 85 2
3 57 122 120 125 224 85 2
3 59 61 124 125 224 85 2
3 59 124 122 125 224 85 2
3 61 63 126 125 224 85 2
3 61 126 124 125 224 85 2
3 63 3 67 125 224 85 2
3 63 67 126 125 224 85 2
3 0 66 1 224 85 165 3
3 0 64 66 224 85 165 3
3 1 69 4 224 85 165 3
3 1 66 69 224 85 165 3
3 4 71 6 224 85 165 3
3 4 69 71 224 85 165 3
3 6 73 8 224 85 165 3
3 6 71 73 224 85 165 3
3 8 75 10 224 85 165 3
3 8 73 75 224 85 165 3
3 10 77 12 224 85 165 3
3 10 75 77 224 85 165 3
3 12 79 14 224 85 165 3
3 12 77 79 224 85 165 3
3 14 81 16 224 85 165 3
3 14 79 81 224 85 165 3
3 16 83 18 224 85 165 3
3 16 81 83 224 85 165 3
3 18 85 20 224 85 165 3
3 18 83 85 224 85 165 3
3 20 87 22 224 85 165 3
3 20 85 87 224 85 165 3
3 22 89 24 224 85 165 3
3 22 87 89 224 85 165 3
3 24 91 26 224 85 165 3
3 24 89 91 224 85 165 3
3 26 93 28 224 85 165 3
3 26 91 93 224 85 165 3
3 28 95 30 224 85 165 3
3 28 93 95 224 85 165 3
3 30 97 32 224 85 165 3
3 30 95 97 224 85 165 3
3 32 99 34 224 85 165 3
3 32 97 99 224 85 165 3
3 34 101 36 224 85 165 3
3 34 99 101 224 85 165 3
3 36 103 38 224 85 165 3
3 36 101 103 224 85 165 3
3 38 105 40 224 85 165 3
3 38 103 105 224 85 165 3
3 40 107 42 224 85 165 3
3 40 105 107 224 85 165 3
3 42 109 44 224 85 165 3
3 42 107 109 224 85 165 3
3 44 111 46 224 85 165 3
3 44 109 111 224 85 165 3
3 46 113 48 224 85 165 3
3 46 111 113 224 85 165 3
3 48 115 50 224 85 165 3
3 48 113 115 224 85 165 3
3 50 117 52 224 85 165 3
3 50 115 117 224 85 165 3
3 52 119 54 224 85 165 3
3 52 117 119 224 85 165 3
3 54 121 56 224 85 165 3
3 54 119 121 224 85 165 3
3 56 123 58 224 85 165 3
3 56 121 123 224 85 165 3
3 58 125 60 224 85 165 3
3 58 123 125 224 85 165 3
3 60 127 62 224 85 165 3
3 60 125 127 224 85 165 3
3 62 64 0 224 85 165 3
3 62 127 64 224 85 165 3
